<?xml version="1.0" encoding="utf-8"?><!-- Uploaded to: SVG Repo, www.svgrepo.com, Generator: SVG Repo Mixer Tools -->
<svg width="800px" height="800px" viewBox="0 0 24 24" fill="none" xmlns="http://www.w3.org/2000/svg">
<path d="M4 4L9.87868 9.87868M20 20L14.1213 14.1213M9.87868 9.87868C9.33579 10.4216 9 11.1716 9 12C9 13.6569 10.3431 15 12 15C12.8284 15 13.5784 14.6642 14.1213 14.1213M9.87868 9.87868L14.1213 14.1213M6.76821 6.76821C4.72843 8.09899 2.96378 10.026 2 11.9998C3.74646 15.5764 8.12201 19 11.9998 19C13.7376 19 15.5753 18.3124 17.2317 17.2317M9.76138 5.34717C10.5114 5.12316 11.2649 5 12.0005 5C15.8782 5 20.2531 8.42398 22 12.0002C21.448 13.1302 20.6336 14.2449 19.6554 15.2412" stroke="#F3502F" stroke-width="2" stroke-linecap="round" stroke-linejoin="round"/>
</svg>